<svg width="128" height="82" viewBox="0 0 128 82" fill="none" xmlns="http://www.w3.org/2000/svg">
<path d="M42.192 10.2C44.2773 10.2 45.8527 10.71 46.918 11.73C48.006 12.75 48.55 14.2347 48.55 16.184C48.55 17.204 48.3007 18.1333 47.802 18.972C47.326 19.788 46.612 20.434 45.66 20.91C44.7307 21.386 43.5633 21.6353 42.158 21.658L42.226 20.4C42.974 20.4 43.7787 20.502 44.64 20.706C45.524 20.91 46.3513 21.2613 47.122 21.76C47.8927 22.2587 48.5273 22.9387 49.026 23.8C49.5247 24.6387 49.774 25.6927 49.774 26.962C49.774 28.3447 49.5473 29.5007 49.094 30.43C48.6407 31.3367 48.04 32.0507 47.292 32.572C46.544 33.0933 45.7167 33.4673 44.81 33.694C43.926 33.898 43.0533 34 42.192 34H33.488C33.012 34 32.604 33.8413 32.264 33.524C31.924 33.184 31.754 32.7647 31.754 32.266V11.934C31.754 11.4353 31.924 11.0273 32.264 10.71C32.604 10.37 33.012 10.2 33.488 10.2H42.192ZM41.716 13.532H35.018L35.426 12.988V20.298L35.052 19.924H41.784C42.6 19.9013 43.314 19.6293 43.926 19.108C44.5607 18.564 44.878 17.7707 44.878 16.728C44.878 15.6627 44.5947 14.8693 44.028 14.348C43.4613 13.804 42.6907 13.532 41.716 13.532ZM41.954 23.256H35.188L35.426 23.018V31.042L35.154 30.736H42.158C43.3367 30.736 44.2887 30.43 45.014 29.818C45.7393 29.1833 46.102 28.2313 46.102 26.962C46.102 25.8967 45.8867 25.1033 45.456 24.582C45.0253 24.0607 44.4927 23.7093 43.858 23.528C43.2233 23.3467 42.5887 23.256 41.954 23.256ZM55.3261 34C54.8274 34 54.4194 33.8413 54.1021 33.524C53.7848 33.184 53.6261 32.7647 53.6261 32.266V17.85C53.6261 17.3513 53.7848 16.9433 54.1021 16.626C54.4194 16.286 54.8274 16.116 55.3261 16.116C55.8021 16.116 56.1988 16.286 56.5161 16.626C56.8561 16.9433 57.0261 17.3513 57.0261 17.85V21.658L56.6861 20.196C56.8674 19.5613 57.1394 18.972 57.5021 18.428C57.8874 17.884 58.3408 17.408 58.8621 17C59.3834 16.592 59.9614 16.2747 60.5961 16.048C61.2534 15.8213 61.9334 15.708 62.6361 15.708C63.2254 15.708 63.7354 15.8667 64.1661 16.184C64.5968 16.5013 64.8121 16.898 64.8121 17.374C64.8121 17.986 64.6534 18.4393 64.3361 18.734C64.0188 19.006 63.6674 19.142 63.2821 19.142C62.9421 19.142 62.6134 19.074 62.2961 18.938C61.9788 18.7793 61.6048 18.7 61.1741 18.7C60.6981 18.7 60.2108 18.8247 59.7121 19.074C59.2134 19.3233 58.7601 19.6973 58.3521 20.196C57.9441 20.672 57.6154 21.2387 57.3661 21.896C57.1394 22.5533 57.0261 23.29 57.0261 24.106V32.266C57.0261 32.7647 56.8561 33.184 56.5161 33.524C56.1988 33.8413 55.8021 34 55.3261 34ZM82.0926 15.844C82.5913 15.844 82.9993 16.014 83.3166 16.354C83.6339 16.6713 83.7926 17.0793 83.7926 17.578V32.266C83.7926 32.7647 83.6339 33.184 83.3166 33.524C82.9993 33.8413 82.5913 34 82.0926 34C81.6166 34 81.2086 33.8413 80.8686 33.524C80.5513 33.184 80.3926 32.7647 80.3926 32.266V29.818L81.1066 29.92C81.1066 30.328 80.9366 30.7813 80.5966 31.28C80.2793 31.7787 79.8373 32.266 79.2706 32.742C78.7039 33.1953 78.0353 33.5807 77.2646 33.898C76.4939 34.1927 75.6666 34.34 74.7826 34.34C73.2186 34.34 71.8133 33.9433 70.5666 33.15C69.3199 32.334 68.3339 31.2233 67.6086 29.818C66.8833 28.4127 66.5206 26.8147 66.5206 25.024C66.5206 23.188 66.8833 21.5787 67.6086 20.196C68.3339 18.7907 69.3086 17.6913 70.5326 16.898C71.7793 16.1047 73.1619 15.708 74.6806 15.708C75.6553 15.708 76.5506 15.8667 77.3666 16.184C78.2053 16.5013 78.9306 16.9093 79.5426 17.408C80.1546 17.9067 80.6193 18.4393 80.9366 19.006C81.2766 19.55 81.4466 20.0713 81.4466 20.57L80.3926 20.672V17.578C80.3926 17.102 80.5513 16.694 80.8686 16.354C81.2086 16.014 81.6166 15.844 82.0926 15.844ZM75.1566 31.212C76.2219 31.212 77.1626 30.94 77.9786 30.396C78.7946 29.852 79.4293 29.1153 79.8826 28.186C80.3359 27.234 80.5626 26.18 80.5626 25.024C80.5626 23.8453 80.3359 22.7913 79.8826 21.862C79.4293 20.9327 78.7946 20.196 77.9786 19.652C77.1626 19.108 76.2219 18.836 75.1566 18.836C74.1139 18.836 73.1846 19.108 72.3686 19.652C71.5753 20.196 70.9406 20.9327 70.4646 21.862C70.0113 22.7913 69.7846 23.8453 69.7846 25.024C69.7846 26.18 70.0113 27.234 70.4646 28.186C70.9406 29.1153 71.5753 29.852 72.3686 30.396C73.1846 30.94 74.1139 31.212 75.1566 31.212ZM97.7698 15.708C99.3791 15.708 100.626 16.048 101.51 16.728C102.394 17.3853 103.006 18.2807 103.346 19.414C103.708 20.5247 103.89 21.7713 103.89 23.154V32.266C103.89 32.7647 103.72 33.184 103.38 33.524C103.062 33.8413 102.666 34 102.19 34C101.691 34 101.283 33.8413 100.966 33.524C100.648 33.184 100.49 32.7647 100.49 32.266V23.188C100.49 22.372 100.376 21.6467 100.15 21.012C99.9231 20.3547 99.5264 19.8333 98.9598 19.448C98.4158 19.04 97.6451 18.836 96.6478 18.836C95.7184 18.836 94.9024 19.04 94.1998 19.448C93.4971 19.8333 92.9418 20.3547 92.5338 21.012C92.1484 21.6467 91.9558 22.372 91.9558 23.188V32.266C91.9558 32.7647 91.7858 33.184 91.4458 33.524C91.1284 33.8413 90.7318 34 90.2558 34C89.7571 34 89.3491 33.8413 89.0318 33.524C88.7144 33.184 88.5558 32.7647 88.5558 32.266V17.85C88.5558 17.3513 88.7144 16.9433 89.0318 16.626C89.3491 16.286 89.7571 16.116 90.2558 16.116C90.7318 16.116 91.1284 16.286 91.4458 16.626C91.7858 16.9433 91.9558 17.3513 91.9558 17.85V19.754L91.3438 20.094C91.5024 19.5953 91.7744 19.0967 92.1598 18.598C92.5678 18.0767 93.0551 17.6007 93.6218 17.17C94.1884 16.7167 94.8231 16.3653 95.5258 16.116C96.2284 15.844 96.9764 15.708 97.7698 15.708ZM123.264 8.84C123.763 8.84 124.171 8.99867 124.488 9.316C124.806 9.63333 124.964 10.0527 124.964 10.574V32.266C124.964 32.7647 124.806 33.184 124.488 33.524C124.171 33.8413 123.763 34 123.264 34C122.788 34 122.38 33.8413 122.04 33.524C121.723 33.184 121.564 32.7647 121.564 32.266V29.818L122.278 29.852C122.278 30.26 122.108 30.7247 121.768 31.246C121.451 31.7447 121.009 32.232 120.442 32.708C119.876 33.184 119.207 33.5807 118.436 33.898C117.666 34.1927 116.838 34.34 115.954 34.34C114.39 34.34 112.985 33.9433 111.738 33.15C110.492 32.334 109.506 31.2347 108.78 29.852C108.055 28.4467 107.692 26.8373 107.692 25.024C107.692 23.2107 108.055 21.6127 108.78 20.23C109.506 18.8247 110.48 17.7253 111.704 16.932C112.951 16.116 114.334 15.708 115.852 15.708C116.804 15.708 117.688 15.8667 118.504 16.184C119.343 16.5013 120.068 16.9093 120.68 17.408C121.292 17.9067 121.768 18.4393 122.108 19.006C122.448 19.55 122.618 20.0713 122.618 20.57L121.564 20.672V10.574C121.564 10.0753 121.723 9.66733 122.04 9.35C122.38 9.01 122.788 8.84 123.264 8.84ZM116.328 31.212C117.416 31.212 118.357 30.94 119.15 30.396C119.966 29.852 120.601 29.1153 121.054 28.186C121.508 27.2567 121.734 26.2027 121.734 25.024C121.734 23.8453 121.508 22.7913 121.054 21.862C120.601 20.9327 119.966 20.196 119.15 19.652C118.334 19.108 117.394 18.836 116.328 18.836C115.286 18.836 114.356 19.108 113.54 19.652C112.747 20.196 112.112 20.9327 111.636 21.862C111.183 22.7913 110.956 23.8453 110.956 25.024C110.956 26.2027 111.183 27.2567 111.636 28.186C112.112 29.1153 112.747 29.852 113.54 30.396C114.356 30.94 115.286 31.212 116.328 31.212Z" fill="#4A5661"/>
<path d="M8.84 55.34C7.412 55.34 6.13133 54.9433 4.998 54.15C3.86467 53.3567 3.00333 52.314 2.414 51.022C2.30067 50.818 2.244 50.6367 2.244 50.478C2.244 50.1833 2.35733 49.9567 2.584 49.798C2.81067 49.6167 3.03733 49.526 3.264 49.526C3.49067 49.526 3.672 49.5827 3.808 49.696C3.96667 49.8093 4.10267 49.9453 4.216 50.104C4.64667 51.056 5.27 51.8267 6.086 52.416C6.902 53.0053 7.82 53.3 8.84 53.3C9.88267 53.3 10.8007 53.0847 11.594 52.654C12.3873 52.2007 12.9993 51.5773 13.43 50.784C13.8833 49.9907 14.11 49.084 14.11 48.064V32.22C14.11 31.948 14.212 31.71 14.416 31.506C14.6427 31.302 14.9033 31.2 15.198 31.2C15.5153 31.2 15.7647 31.302 15.946 31.506C16.15 31.71 16.252 31.948 16.252 32.22V48.064C16.252 49.4693 15.9347 50.7273 15.3 51.838C14.6653 52.926 13.7927 53.7873 12.682 54.422C11.5713 55.034 10.2907 55.34 8.84 55.34ZM52.7048 37.728C52.9994 37.728 53.2374 37.83 53.4188 38.034C53.6228 38.238 53.7248 38.476 53.7248 38.748V48.336C53.7248 50.58 53.0901 52.2913 51.8208 53.47C50.5514 54.6487 48.8401 55.238 46.6868 55.238C44.5561 55.238 42.8561 54.6487 41.5868 53.47C40.3401 52.2913 39.7168 50.58 39.7168 48.336V38.748C39.7168 38.476 39.8074 38.238 39.9888 38.034C40.1928 37.83 40.4421 37.728 40.7368 37.728C41.0314 37.728 41.2694 37.83 41.4508 38.034C41.6548 38.238 41.7568 38.476 41.7568 38.748V48.336C41.7568 49.968 42.1874 51.2147 43.0488 52.076C43.9328 52.9147 45.1454 53.334 46.6868 53.334C48.2508 53.334 49.4748 52.9147 50.3588 52.076C51.2428 51.2147 51.6848 49.968 51.6848 48.336V38.748C51.6848 38.476 51.7754 38.238 51.9568 38.034C52.1381 37.83 52.3874 37.728 52.7048 37.728ZM60.0942 55C59.7769 55 59.5275 54.898 59.3462 54.694C59.1649 54.49 59.0742 54.252 59.0742 53.98V38.748C59.0742 38.476 59.1649 38.238 59.3462 38.034C59.5502 37.83 59.7995 37.728 60.0942 37.728C60.3889 37.728 60.6269 37.83 60.8082 38.034C61.0122 38.238 61.1142 38.476 61.1142 38.748V43.848L60.6042 43.95C60.6722 43.1567 60.8649 42.3747 61.1822 41.604C61.5222 40.8107 61.9755 40.0853 62.5422 39.428C63.1089 38.7707 63.7775 38.238 64.5482 37.83C65.3415 37.422 66.2255 37.218 67.2002 37.218C67.6082 37.218 68.0049 37.3087 68.3902 37.49C68.7755 37.6487 68.9682 37.9207 68.9682 38.306C68.9682 38.646 68.8775 38.9067 68.6962 39.088C68.5149 39.2693 68.2995 39.36 68.0502 39.36C67.8462 39.36 67.6195 39.3033 67.3702 39.19C67.1435 39.0767 66.8375 39.02 66.4522 39.02C65.8175 39.02 65.1829 39.2127 64.5482 39.598C63.9135 39.9607 63.3355 40.4593 62.8142 41.094C62.2929 41.7287 61.8735 42.4427 61.5562 43.236C61.2615 44.0067 61.1142 44.7887 61.1142 45.582V53.98C61.1142 54.252 61.0122 54.49 60.8082 54.694C60.6042 54.898 60.3662 55 60.0942 55ZM80.3502 37.218C81.8462 37.218 83.0362 37.524 83.9202 38.136C84.8269 38.7253 85.4729 39.5413 85.8582 40.584C86.2662 41.604 86.4702 42.7373 86.4702 43.984V53.98C86.4702 54.252 86.3682 54.49 86.1642 54.694C85.9602 54.898 85.7222 55 85.4502 55C85.1329 55 84.8836 54.898 84.7022 54.694C84.5209 54.49 84.4302 54.252 84.4302 53.98V44.086C84.4302 43.1793 84.2829 42.352 83.9882 41.604C83.6936 40.856 83.2062 40.2553 82.5262 39.802C81.8689 39.3487 80.9962 39.122 79.9082 39.122C78.9336 39.122 78.0042 39.3487 77.1202 39.802C76.2589 40.2553 75.5562 40.856 75.0122 41.604C74.4682 42.352 74.1962 43.1793 74.1962 44.086V53.98C74.1962 54.252 74.0942 54.49 73.8902 54.694C73.6862 54.898 73.4482 55 73.1762 55C72.8589 55 72.6096 54.898 72.4282 54.694C72.2469 54.49 72.1562 54.252 72.1562 53.98V38.748C72.1562 38.476 72.2469 38.238 72.4282 38.034C72.6322 37.83 72.8816 37.728 73.1762 37.728C73.4709 37.728 73.7089 37.83 73.8902 38.034C74.0942 38.238 74.1962 38.476 74.1962 38.748V41.604L73.4142 42.828C73.4596 42.1027 73.6862 41.4113 74.0942 40.754C74.5249 40.074 75.0689 39.4733 75.7262 38.952C76.3836 38.408 77.1089 37.9887 77.9022 37.694C78.7182 37.3767 79.5342 37.218 80.3502 37.218ZM99.6665 55.34C97.9212 55.34 96.3798 54.966 95.0425 54.218C93.7052 53.47 92.6625 52.4273 91.9145 51.09C91.1665 49.7527 90.7925 48.1887 90.7925 46.398C90.7925 44.4713 91.1665 42.828 91.9145 41.468C92.6852 40.108 93.6712 39.0653 94.8725 38.34C96.0965 37.592 97.3885 37.218 98.7485 37.218C99.7458 37.218 100.709 37.3993 101.638 37.762C102.59 38.102 103.429 38.6233 104.154 39.326C104.902 40.006 105.492 40.8447 105.922 41.842C106.376 42.8393 106.625 43.9953 106.67 45.31C106.648 45.582 106.534 45.82 106.33 46.024C106.126 46.2053 105.888 46.296 105.616 46.296H91.9825L91.5745 44.46H104.97L104.528 44.868V44.188C104.438 43.1227 104.098 42.216 103.508 41.468C102.919 40.72 102.205 40.1533 101.366 39.768C100.528 39.3827 99.6552 39.19 98.7485 39.19C98.0685 39.19 97.3658 39.326 96.6405 39.598C95.9378 39.87 95.2918 40.3007 94.7025 40.89C94.1358 41.4567 93.6712 42.1933 93.3085 43.1C92.9458 43.984 92.7645 45.038 92.7645 46.262C92.7645 47.5993 93.0365 48.812 93.5805 49.9C94.1245 50.988 94.9065 51.8493 95.9265 52.484C96.9692 53.1187 98.2045 53.436 99.6325 53.436C100.426 53.436 101.14 53.3227 101.774 53.096C102.409 52.8693 102.964 52.5747 103.44 52.212C103.916 51.8267 104.313 51.43 104.63 51.022C104.88 50.818 105.129 50.716 105.378 50.716C105.605 50.716 105.798 50.8067 105.956 50.988C106.138 51.1693 106.228 51.3733 106.228 51.6C106.228 51.872 106.115 52.11 105.888 52.314C105.208 53.13 104.324 53.844 103.236 54.456C102.148 55.0453 100.958 55.34 99.6665 55.34Z" fill="#4A5661"/>
<path d="M123.954 38C124.249 38 124.487 38.102 124.668 38.306C124.872 38.51 124.974 38.748 124.974 39.02V60.866C124.974 62.702 124.611 64.2433 123.886 65.49C123.161 66.7593 122.186 67.7113 120.962 68.346C119.738 69.0033 118.344 69.332 116.78 69.332C115.805 69.332 114.899 69.2187 114.06 68.992C113.244 68.788 112.575 68.516 112.054 68.176C111.782 68.0173 111.578 67.8247 111.442 67.598C111.306 67.3713 111.295 67.1333 111.408 66.884C111.521 66.5667 111.691 66.3513 111.918 66.238C112.167 66.1473 112.417 66.1587 112.666 66.272C113.051 66.476 113.607 66.7253 114.332 67.02C115.057 67.3147 115.885 67.462 116.814 67.462C118.061 67.462 119.137 67.2013 120.044 66.68C120.973 66.1587 121.687 65.3993 122.186 64.402C122.685 63.4273 122.934 62.26 122.934 60.9V51.6L123.172 52.416C122.832 53.1187 122.345 53.742 121.71 54.286C121.098 54.83 120.384 55.2607 119.568 55.578C118.775 55.8727 117.925 56.02 117.018 56.02C115.658 56.02 114.525 55.748 113.618 55.204C112.734 54.6373 112.077 53.8667 111.646 52.892C111.215 51.9173 111 50.7727 111 49.458V39.02C111 38.748 111.091 38.51 111.272 38.306C111.453 38.102 111.703 38 112.02 38C112.315 38 112.553 38.102 112.734 38.306C112.938 38.51 113.04 38.748 113.04 39.02V49.152C113.04 50.7387 113.38 51.9627 114.06 52.824C114.763 53.6853 115.896 54.116 117.46 54.116C118.435 54.116 119.33 53.8893 120.146 53.436C120.962 52.96 121.631 52.348 122.152 51.6C122.673 50.8293 122.934 50.0133 122.934 49.152V39.02C122.934 38.748 123.025 38.51 123.206 38.306C123.41 38.102 123.659 38 123.954 38Z" fill="#4A5661"/>
<path d="M27.0751 60.5158C20.2642 50.6421 19 49.6287 19 46C19 41.0294 23.0294 37 28 37C32.9706 37 37 41.0294 37 46C37 49.6287 35.7358 50.6421 28.9249 60.5158C28.478 61.1614 27.522 61.1614 27.0751 60.5158ZM28 49.75C30.0711 49.75 31.75 48.0711 31.75 46C31.75 43.9289 30.0711 42.25 28 42.25C25.9289 42.25 24.25 43.9289 24.25 46C24.25 48.0711 25.9289 49.75 28 49.75Z" fill="#4A5661"/>
<circle cx="28" cy="46" r="7" fill="white"/>
<path d="M32 68.5C47.0261 75.8936 54.3236 70.2013 65.1661 65.9351C89.1868 56.4836 98.2113 61.2213 109 65.5" stroke="#4A5661" stroke-width="2" stroke-linecap="round" stroke-dasharray="5 5"/>
<circle cx="28" cy="66" r="2" fill="#4A5661"/>
</svg>
